<svg width="192" height="175" viewBox="0 0 192 175" fill="none" xmlns="http://www.w3.org/2000/svg">
    <path id="Vector 3"
          d="M15.3766 46.4169L29.2326 23.1373C36.5127 8.93368 51.1305 0 67.0911 0H67.7688C73.9097 0 79.9816 1.29575 85.5876 3.80257L93.8317 7.48907C102.062 11.1695 110.977 13.0719 119.993 13.0719C133.35 13.0719 146.373 17.2453 157.242 25.0087L158.562 25.9517C166.225 31.4251 172.689 38.406 177.558 46.4664L182.125 54.0268C185.096 58.944 187.373 64.2478 188.892 69.788C191.556 79.5016 191.828 89.7157 189.686 99.5574L186.602 113.725L182.415 129.454C180.98 134.843 177.757 139.585 173.275 142.902C167.269 147.347 159.569 148.823 152.346 146.914L143.146 144.482C141.409 144.023 139.62 143.791 137.824 143.791C131.211 143.791 124.99 146.932 121.065 152.255L116.053 159.051C114.119 161.674 111.807 163.996 109.193 165.941L103.146 170.442C95.4626 176.162 84.9969 176.378 77.0839 170.98C68.5502 163.333 55.0331 163.109 43.672 161.614C40.0435 161.136 36.0936 160.004 31.9602 157.909C29.4448 156.633 27.4531 155.421 25.8953 154.279C21.5915 151.126 15.8997 140.835 10.9446 138.857C9.22899 138.172 7.89756 136.772 7.29872 135.025L2.43822 120.841C0.827582 116.141 0.129986 111.176 0.382963 106.214L1.01199 93.8756C1.86608 77.1227 6.79702 60.8315 15.3766 46.4169Z"
          fill="white" fill-opacity="0.75"/>
</svg>
