<svg width="178" height="197" viewBox="0 0 178 197" fill="none" xmlns="http://www.w3.org/2000/svg">
<path id="Vector 5" d="M64.5925 192.687L76.4513 186.255C81.5966 183.464 87.7951 183.444 93.1995 186.201C97.177 188.23 101.633 188.777 105.813 187.747L115.904 185.263C127.381 182.438 137.265 175.171 143.649 164.862L159.857 138.69C162.276 134.784 164.398 130.674 166.206 126.396L173.395 109.385C177.971 98.5563 178.29 86.0733 174.284 74.5808C170.115 62.6186 161.61 52.7287 150.711 47.1682L147.36 45.4589L134.912 39.1084C127.346 35.2487 120.706 29.5299 115.573 22.4528C104.063 6.58433 85.5433 -1.75555 67.3067 0.717786L56.1083 2.23656C50.6918 2.97117 45.4464 4.55904 40.5443 6.94802C31.2814 11.4621 23.5275 18.6974 18.1665 27.8287L14.1678 34.6398C10.1521 41.4799 7.1003 48.9318 5.10336 56.7737L4.07044 60.8299C1.6071 70.5033 0.502755 80.5685 0.791887 90.7112L1.06671 100.352C1.31158 108.941 3.29015 117.461 6.86992 125.342L7.79485 127.378C10.8936 134.199 12.5555 141.591 12.6611 149.024L12.7169 152.956C12.8812 164.516 17.6146 175.7 25.7717 183.803L28.7594 186.771C35.8996 193.864 45.5921 197.219 55.0168 195.86C58.377 195.375 61.6124 194.303 64.5925 192.687Z" fill="white" fill-opacity="0.75"/>
</svg>
