<svg width="111" height="111" viewBox="0 0 111 111" fill="none" xmlns="http://www.w3.org/2000/svg">
<g id="&#208;&#178;&#208;&#181;&#208;&#186;&#209;&#130;&#208;&#190;&#209;&#128; &#208;&#183;&#208;&#189;&#208;&#176;&#208;&#186; &#208;&#178;&#208;&#190;&#208;&#191;&#209;&#128;&#208;&#190;&#209;&#129;&#208;&#176;" clip-path="url(#clip0_6_964)">
<path id="Vector" d="M55.7408 29.8718C58.6038 29.765 61.4471 30.4328 63.959 31.8051C66.4717 33.1778 68.5617 35.206 69.9894 37.6758C71.4177 40.1465 72.1257 42.9604 72.0246 45.806C71.9234 48.6517 71.0178 51.4064 69.4138 53.7638C67.811 56.1205 65.5767 57.9837 62.968 59.1575C62.2763 59.4685 61.5313 59.7492 60.9315 59.9752C60.7592 60.0403 60.599 60.1008 60.4552 60.1559C59.7203 60.4392 59.2395 60.6528 58.8759 60.8758C58.5476 61.0767 58.3977 61.2372 58.3061 61.3747C58.218 61.5078 58.0668 61.7966 57.994 62.4209L57.4759 66.8676C57.3389 68.0432 56.2747 68.885 55.0994 68.748L52.2614 68.4174C51.0858 68.2804 50.244 67.2165 50.381 66.0409L50.8992 61.5942C51.0818 60.0269 51.5549 58.6298 52.3556 57.4237C53.1537 56.2215 54.1578 55.3893 55.1447 54.7848C56.0957 54.202 57.0903 53.7976 57.8876 53.4907C58.1334 53.396 58.3583 53.3111 58.5682 53.232C59.1158 53.0255 59.5671 52.8548 60.0369 52.6434C61.4591 52.0037 62.6572 50.9974 63.508 49.7464C64.3585 48.4961 64.8332 47.0452 64.8863 45.5524C64.9391 44.0592 64.5686 42.5706 63.8055 41.2506C63.0418 39.9296 61.913 38.8266 60.5345 38.0735C59.1556 37.3202 57.5878 36.9507 56.0072 37.0097C54.4265 37.0687 52.9052 37.5531 51.61 38.3991C50.9309 38.8426 50.3287 39.3761 49.8172 39.9795C49.0522 40.8823 47.794 41.371 46.7219 40.8696L44.1339 39.659C43.0619 39.1576 42.5876 37.8713 43.2348 36.8805C44.3927 35.1085 45.9135 33.5886 47.7037 32.4191C50.0957 30.8566 52.8774 29.9786 55.7408 29.8718Z" fill="white" fill-opacity="0.4"/>
<path id="Vector_2" d="M49.8685 75.929C49.9826 74.9495 50.8695 74.2478 51.8489 74.362L54.1462 74.6296C55.1257 74.7438 55.8274 75.6306 55.7133 76.61L55.4456 78.9074C55.3314 79.8868 54.4446 80.5885 53.4652 80.4744L51.1679 80.2067C50.1884 80.0926 49.4867 79.2057 49.6008 78.2263L49.8685 75.929Z" fill="white" fill-opacity="0.4"/>
<path id="Vector_3" fill-rule="evenodd" clip-rule="evenodd" d="M60.8246 9.33465C35.3551 6.36683 12.3021 24.608 9.33429 50.0775C6.36647 75.5469 24.6077 98.5999 50.0771 101.568C75.5466 104.536 98.5996 86.2944 101.567 60.8249C104.535 35.3555 86.294 12.3025 60.8246 9.33465ZM16.4291 50.9042C18.9404 29.3531 38.4467 13.9183 59.9978 16.4295C81.5488 18.9407 96.9838 38.4471 94.4725 59.9982C91.9613 81.5492 72.4548 96.9841 50.9038 94.4729C29.3528 91.9617 13.9179 72.4552 16.4291 50.9042Z" fill="white" fill-opacity="0.4"/>
</g>
<defs>
<clipPath id="clip0_6_964">
<rect width="100" height="100" fill="white" transform="translate(11.5742) rotate(6.6464)"/>
</clipPath>
</defs>
</svg>
