<svg width="360" height="92" viewBox="0 0 360 92" fill="none" xmlns="http://www.w3.org/2000/svg">
<path d="M-31 91H-10.3475H-3.93496C5.99075 91 15.7983 88.8462 24.8106 84.6872V84.6872C29.9897 82.2971 34.8505 79.2705 39.2805 75.6774L53.262 64.337L62.6668 55.266C70.5133 47.6979 80.1858 42.2908 90.7426 39.5711V39.5711C95.8875 38.2456 101.179 37.5749 106.492 37.5749H121.04C126.084 37.5749 131.104 38.2789 135.954 39.6664V39.6664C145.231 42.3208 155.049 42.4511 164.393 40.0437L164.992 39.8892C170.941 38.3566 176.647 35.8339 181.793 32.4793V32.4793C191.124 26.397 202.107 23.1035 213.246 23.1035H213.628H226.889C233.438 23.1035 239.956 24.004 246.259 25.7797L247.531 26.1379C252.99 27.676 258.636 28.4559 264.308 28.4559V28.4559C269.193 28.4559 274.061 27.8774 278.81 26.7325L279.982 26.4501C289.147 24.2406 297.789 20.253 305.417 14.7137L309.173 11.9866C312.245 9.75579 315.531 7.8343 318.981 6.25025L320.712 5.45579C327.107 2.51992 334.061 1 341.098 1V1C346.673 1 352.206 1.95391 357.459 3.82043L371 8.63216" stroke="white"/>
</svg>
