<svg width="360" height="71" viewBox="0 0 360 71" fill="none" xmlns="http://www.w3.org/2000/svg">
<path d="M-19.7966 70.5006C-18.8958 68.4183 -15.9868 65.7217 -12.8328 63.2702C-7.97322 59.493 -1.97637 57.6113 4.14182 56.9404V56.9404C10.105 56.2866 16.1391 56.9208 21.836 58.8003L27.5682 60.6914C34.4877 62.9742 41.8169 63.7446 49.0599 62.9504V62.9504C57.3982 62.0361 65.3812 59.0748 72.2987 54.3302L80.7383 48.5415L90.2285 41.8417C94.2499 39.0028 98.9266 37.2319 103.82 36.6954V36.6954C108.132 36.2225 112.495 36.7212 116.59 38.1548L130.63 43.0708L140.286 45.9836C151.458 49.3538 163.195 50.4353 174.795 49.1633V49.1633C184.05 48.1484 193.082 45.6501 201.544 41.7641L220.048 33.266L224 31.7496C234.257 27.8135 245.333 26.4907 256.229 27.9003V27.9003C260.122 28.4039 263.962 29.2525 267.705 30.4361L271.79 31.728C282.194 35.0186 293.346 35.1189 303.808 32.0161V32.0161C312.472 29.4468 320.363 24.7695 326.775 18.4027L328.602 16.5884C332.013 13.2017 335.876 10.3028 340.082 7.97411L341.015 7.45723C349.927 2.52211 360.159 0.498326 370.279 1.66938V1.66938C373.674 2.06219 377.017 2.81028 380.256 3.90136L394.657 8.75351V8.75351C405.528 11.1156 416.71 11.7017 427.769 10.4891L428.499 10.409" stroke="white"/>
</svg>
