<svg width="1920" height="744" viewBox="0 0 1920 744" fill="none" xmlns="http://www.w3.org/2000/svg">
    <path d="M41.4684 57.7214L38.9927 52.6994C31.504 37.5082 20.0223 24.6413 5.77837 15.4781C-53.2268 -22.4801 -131.445 15.8053 -137.664 85.6891L-172.719 479.57C-179.318 553.714 -120.906 617.555 -46.469 617.555C11.8774 615.201 133.271 611.904 152.076 617.555C169.622 622.828 263.135 666.028 316.741 691.202C323.99 694.606 331.49 697.396 339.212 699.521C399.502 716.115 503.791 744 516.157 744C532.661 744 786.218 667.709 816.224 653.228C846.231 638.747 1015.27 679.718 1055.78 696.318C1088.19 709.599 1239.99 714.567 1311.84 715.391C1364.68 709.034 1474.47 696.318 1490.88 696.318C1507.28 696.318 1583.06 709.034 1618.9 715.391L1724.49 740.248C1735.08 742.741 1745.93 744 1756.8 744H1833.55C1843.13 744 1852.68 743.024 1862.07 741.086L1975.03 717.757C1982.47 716.221 1990.2 717.146 1997.06 720.39C2020.27 731.363 2047 714.433 2047 688.761V517.273C2047 431.008 1970.23 364.966 1884.93 377.856L1810.95 389.037L1729.52 410.019C1710.02 415.045 1689.66 415.834 1669.82 412.331L1561.55 393.215C1545.89 390.45 1529.87 390.354 1514.17 392.934L1448.22 403.771C1440.66 405.013 1433.01 405.637 1425.36 405.637H1326.2C1301.39 405.637 1277.02 399.091 1255.55 386.66L1177.31 341.355L1055.78 277.074L1026.41 265.081C1003.7 255.812 978.977 252.624 954.666 255.831L900.743 262.946L776.697 289.51C756.292 293.88 735.173 293.666 714.861 288.884L685.632 282.003C671.751 278.736 658.447 273.381 646.172 266.123L560.167 215.264L516.451 183.056C492.22 165.204 462.913 155.574 432.816 155.574H327.615H212.755C199.376 155.574 186.065 153.67 173.223 149.918L142.63 140.983C122.187 135.012 103.362 124.487 87.5682 110.199L67.1275 91.7064C56.5071 82.0983 47.8008 70.567 41.4684 57.7214Z"
          fill="#850404" fill-opacity="0.7"/>
</svg>
