<svg width="360" height="124" viewBox="0 0 360 124" fill="none" xmlns="http://www.w3.org/2000/svg">
    <path d="M-0.0673828 1L9.95822 20.544C12.9289 26.3351 17.6199 31.0645 23.3866 34.0823V34.0823C26.7668 35.8512 30.4401 36.9917 34.2277 37.4482L47.6779 39.0694L65.6131 41.2312C72.8256 42.1006 79.3089 46.0491 83.3908 52.0586V52.0586C84.9576 54.3652 86.8974 56.395 89.1308 58.0646L97.9925 64.6896C103.98 69.1658 109.185 74.6025 113.396 80.7791V80.7791C116.475 85.2949 119.957 89.6439 124.64 92.462C127.715 94.3125 131.02 95.6721 133.329 95.0506C134.696 94.6826 137.522 93.803 141.021 92.6803C156.453 87.7284 172.983 73.6125 187.341 81.1297V81.1297C199.964 87.7381 215.173 96.4721 221.2 100.013V100.013C233.479 105.227 246.432 108.683 259.676 110.28L271.549 111.711L279.856 112.712C284.855 113.315 289.696 114.853 294.125 117.246V117.246C298.555 119.64 303.396 121.178 308.395 121.781L310.939 122.087L315.706 122.662C327.316 124.061 339.076 123.578 350.532 121.231V121.231L367.073 117.596"
          stroke="white"/>
</svg>
