<svg width="360" height="36" viewBox="0 0 360 36" fill="none" xmlns="http://www.w3.org/2000/svg">
<path d="M-10 1L15.1542 9.0474C23.569 11.7395 31.6534 15.3716 39.2544 19.8749V19.8749C46.7583 24.3207 54.7239 27.9496 63.0655 30.4977C68.4692 32.1483 73.8541 33.7213 76.659 34.3494C80.3111 35.1673 91.2575 35.0863 100.804 34.796C108.158 34.5724 115.436 33.3334 122.513 31.3206V31.3206C133.574 28.1745 142.969 19.9462 154.319 18.0952C154.53 18.0609 154.725 18.0429 154.904 18.0429C156.597 18.0429 160.332 18.0429 164.172 18.0429C170.041 18.0429 175.771 19.8245 180.606 23.1521V23.1521C183.876 25.403 187.573 26.9581 191.469 27.721L215.28 32.3844C221.954 33.6913 228.738 34.3494 235.538 34.3494V34.3494C240.901 34.3494 246.255 33.9402 251.555 33.1253L270.965 30.1413C276.607 28.949 288.935 26.5644 293.113 26.5644C297.291 26.5644 315.745 28.949 324.449 30.1413L326.852 30.5285C342.634 33.0717 358.594 34.3494 374.58 34.3494H376" stroke="white"/>
</svg>
