<svg width="360" height="340" viewBox="0 0 360 340" fill="none" xmlns="http://www.w3.org/2000/svg">
<path d="M-22.0003 0.648518L-8.55932 22.1474L-6.24191 25.8541C1.35527 38.0058 12.4409 47.5836 25.5667 53.3362V53.3362C31.6008 55.9808 37.9726 57.7755 44.5 58.6691L73.8983 62.6938L99.9987 64.0671C112.745 64.7377 124.998 69.2138 135.175 76.9174V76.9174C141.37 81.607 146.657 87.388 150.776 93.9764L159.078 107.255C162.438 112.63 164.685 118.624 165.684 124.883V124.883C167.61 136.942 174.121 147.789 183.858 155.159L185.253 156.216C190.809 160.421 197.158 163.46 203.918 165.149L209.621 166.574C222.956 169.906 234.478 178.28 241.765 189.935V189.935L250.12 203.299C254.542 210.372 257.519 218.25 258.88 226.479L259.234 228.616C260.361 235.435 262.828 241.962 266.492 247.823V247.823C269.668 252.903 273.693 257.4 278.391 261.118L280.706 262.95C289.429 269.854 299.685 274.56 310.607 276.671L322.738 279.015C327.058 279.85 331.27 281.168 335.296 282.944L339.909 284.979C347.665 288.401 354.214 294.073 358.708 301.261V301.261C362.344 307.078 364.512 313.691 365.025 320.531L366.47 339.824" stroke="white"/>
</svg>
