<svg width="360" height="443" viewBox="0 0 360 443" fill="none" xmlns="http://www.w3.org/2000/svg">
<path d="M-73.0001 0.446734L-49.4084 29.2914L-43.8168 36.128C-31.4117 51.2953 -15.1908 62.885 3.17814 69.7054V69.7054C12.5017 73.1673 22.2505 75.3525 32.1597 76.2017L70.5046 79.4876L102.13 79.4732C121.28 79.4644 140.03 84.9462 156.16 95.2688V95.2688C165.062 100.966 173.005 108.036 179.697 116.217L195.224 135.202C201.057 142.334 205.6 150.429 208.649 159.123V159.123C214.504 175.817 225.782 190.069 240.682 199.605L242.287 200.632C251.232 206.357 261.174 210.348 271.595 212.398L275.935 213.252C295.905 217.18 313.88 227.948 326.766 243.703V243.703L341.664 261.918C349.29 271.242 355.255 281.809 359.298 293.156L360.237 295.792C363.659 305.395 368.707 314.337 375.16 322.228V322.228C380.738 329.048 387.299 335 394.627 339.889L397.389 341.732C411.232 350.969 426.974 356.977 443.452 359.312L456.949 361.224C463.518 362.155 469.965 363.797 476.179 366.12L481.374 368.062C493.145 372.464 503.539 379.908 511.496 389.636V389.636C517.872 397.432 522.519 406.495 525.127 416.223L532.18 442.524" stroke="white" stroke-opacity="0.5"/>
</svg>
