<svg width="360" height="534" viewBox="0 0 360 534" fill="none" xmlns="http://www.w3.org/2000/svg">
<path d="M-66.0424 532.792L-33.9757 513.81L-26.3755 509.311C-9.51404 499.33 4.3849 485.038 13.8922 467.905V467.905C18.7178 459.209 22.3453 449.9 24.6761 440.231L33.6955 402.817L38.4408 371.55C41.3142 352.617 49.5555 334.905 62.188 320.513V320.513C69.1598 312.57 77.3451 305.781 86.4398 300.397L107.545 287.904C115.474 283.21 124.16 279.937 133.214 278.231V278.231C150.599 274.955 166.386 265.951 178.056 252.656L179.313 251.224C186.319 243.242 191.761 234.014 195.356 224.02L196.853 219.858C203.742 200.707 217.093 184.557 234.607 174.189V174.189L254.857 162.202C265.223 156.066 276.567 151.759 288.393 149.47L291.141 148.938C301.149 147.001 310.749 143.356 319.522 138.164V138.164C327.103 133.676 333.974 128.086 339.911 121.577L342.149 119.124C353.364 106.828 361.672 92.1696 366.46 76.2312L370.383 63.1754C372.291 56.822 374.885 50.6948 378.117 44.9015L380.819 40.0581C386.941 29.083 395.865 19.9278 406.68 13.526V13.526C415.347 8.39555 425.006 5.16589 435.015 4.05115L462.079 1.03721" stroke="white" stroke-opacity="0.5"/>
</svg>
