<svg width="360" height="534" viewBox="0 0 360 534" fill="none" xmlns="http://www.w3.org/2000/svg">
<path d="M-65.0424 532.79L-32.9757 513.808L-25.3755 509.309C-8.51404 499.328 5.3849 485.036 14.8922 467.903V467.903C19.7178 459.207 23.3453 449.898 25.6761 440.229L34.6955 402.816L39.4408 371.548C42.3142 352.615 50.5555 334.903 63.188 320.511V320.511C70.1598 312.568 78.3451 305.779 87.4398 300.395L108.545 287.902C116.474 283.208 125.16 279.935 134.214 278.229V278.229C151.599 274.953 167.386 265.949 179.056 252.654L180.313 251.222C187.319 243.24 192.761 234.012 196.356 224.018L197.853 219.856C204.742 200.705 218.093 184.555 235.607 174.187V174.187L255.857 162.2C266.223 156.064 277.567 151.757 289.393 149.468L292.141 148.936C302.149 146.999 311.749 143.355 320.522 138.162V138.162C328.103 133.674 334.974 128.084 340.911 121.575L343.149 119.122C354.364 106.826 362.672 92.1676 367.46 76.2292L371.383 63.1734C373.291 56.8201 375.885 50.6928 379.117 44.8995L381.819 40.0561C387.941 29.081 396.865 19.9259 407.68 13.5241V13.5241C416.347 8.3936 426.006 5.16394 436.015 4.04919L463.079 1.03525" stroke="white" stroke-opacity="0.5"/>
</svg>
