<svg width="360" height="504" viewBox="0 0 360 504" fill="none" xmlns="http://www.w3.org/2000/svg">
<path d="M521.519 503.182L501.056 472.04L496.206 464.659C485.445 448.283 470.518 435.069 452.958 426.375V426.375C444.045 421.963 434.577 418.775 424.809 416.9L387.014 409.644L355.559 406.369C336.512 404.385 318.433 396.983 303.465 385.039V385.039C295.204 378.447 288.039 370.589 282.235 361.756L268.766 341.259C263.707 333.56 260.03 325.036 257.902 316.071V316.071C253.815 298.859 244.081 283.512 230.253 272.478L228.764 271.289C220.463 264.665 210.99 259.661 200.839 256.539L196.611 255.238C177.158 249.254 160.4 236.674 149.223 219.665V219.665L136.301 199.999C129.686 189.932 124.852 178.802 122.011 167.096L121.351 164.376C118.947 154.47 114.857 145.051 109.259 136.532V136.532C104.421 129.169 98.5148 122.567 91.7347 116.942L89.1795 114.822C76.3718 104.195 61.3399 96.5826 45.1947 92.5465L31.9695 89.2403C25.5336 87.6314 19.2916 85.3282 13.3532 82.3712L8.38854 79.899C-2.86138 74.2971 -12.4246 65.8122 -19.3261 55.3093V55.3093C-24.857 46.8922 -28.5357 37.3955 -30.1183 27.4489L-34.397 0.556254" stroke="white" stroke-opacity="0.5"/>
</svg>
