<svg width="360" height="443" viewBox="0 0 360 443" fill="none" xmlns="http://www.w3.org/2000/svg">
<path d="M-114 0.446734L-90.4084 29.2914L-84.8168 36.128C-72.4117 51.2953 -56.1908 62.885 -37.8219 69.7054V69.7054C-28.4983 73.1673 -18.7495 75.3525 -8.84034 76.2017L29.5046 79.4876L61.13 79.4732C80.2797 79.4644 99.0304 84.9462 115.16 95.2688V95.2688C124.062 100.966 132.005 108.036 138.697 116.217L154.224 135.202C160.057 142.334 164.6 150.429 167.649 159.123V159.123C173.504 175.817 184.782 190.069 199.682 199.605L201.287 200.632C210.232 206.357 220.174 210.348 230.595 212.398L234.935 213.252C254.905 217.18 272.88 227.948 285.766 243.703V243.703L300.664 261.918C308.29 271.242 314.255 281.809 318.298 293.156L319.237 295.792C322.659 305.395 327.707 314.337 334.16 322.228V322.228C339.738 329.048 346.299 335 353.627 339.889L356.389 341.732C370.232 350.969 385.974 356.977 402.452 359.312L415.949 361.224C422.518 362.155 428.965 363.797 435.179 366.12L440.374 368.062C452.145 372.464 462.539 379.908 470.496 389.636V389.636C476.872 397.432 481.519 406.495 484.127 416.223L491.18 442.524" stroke="white" stroke-opacity="0.5"/>
</svg>
