<svg width="300" height="70" viewBox="0 0 300 70" fill="none" xmlns="http://www.w3.org/2000/svg">
<path d="M11.7231 2.88195L0 5.55842V21.7202V37.779L13.3846 44.882C20.7692 48.6908 26.7692 52.1908 26.7692 52.4996C26.7692 52.9114 21.6923 52.3967 15.5077 51.3672C0.923077 48.8967 1.56923 48.8967 2.86154 51.6761C4.8 55.6908 12.8308 63.5143 18.4615 66.8084L23.9077 70.1025L28.3385 67.529C34.8 63.9261 41.9077 57.2349 45.1385 51.779C47.7231 47.5584 48 46.1172 48 39.529V32.0143L34.8923 25.0143C27.6923 21.2055 22.4308 17.9114 23.1692 17.7055C23.9077 17.6025 29.7231 18.3231 36.2769 19.3525L48 21.3084V13.382V5.55842L37.6615 3.29372C31.9385 2.16136 26.4 0.926071 25.3846 0.720184C24.3692 0.514305 18.2769 1.44077 11.7231 2.88195Z" fill="#CB0B0B"/>
<path d="M61.3855 32.1171C58.3394 33.9701 57.2317 36.2348 57.2317 40.6612C57.2317 45.4995 58.6163 47.3524 65.3547 51.4701C70.3394 54.5583 71.0778 56.2054 68.0317 57.7495C65.9086 58.7789 62.7701 58.2642 57.9701 56.1024C56.5855 55.4848 56.3086 55.9995 56.3086 59.4995V63.7201L61.2009 64.7495C70.8009 66.9112 77.5394 62.8965 77.5394 54.8671C77.5394 49.6171 75.9701 47.5583 69.2317 43.7495C66.7394 42.3083 64.6163 40.4554 64.6163 39.6318C64.6163 37.4701 68.6778 36.6465 72.0932 37.9848C75.8778 39.426 75.6009 39.5289 76.7086 36.3377C77.4471 34.073 77.3547 33.2495 76.0624 32.2201C74.0317 30.573 63.9701 30.4701 61.3855 32.1171Z" fill="#CB0B0B"/>
<path d="M81.2305 34.4849C81.2305 37.9849 81.3228 38.0878 84.9228 38.0878H88.6151V51.4702V64.8525H92.7689H96.9228V51.4702V38.0878H100.615C104.215 38.0878 104.307 37.9849 104.307 34.4849V30.882H92.7689H81.2305V34.4849Z" fill="#CB0B0B"/>
<path d="M111.416 46.2202C109.016 54.6614 106.801 62.382 106.524 63.3084C105.97 64.7496 106.524 64.9555 110.401 64.6467C114.278 64.3378 114.924 64.029 115.385 61.7643C115.847 59.3967 116.401 59.1908 121.201 58.882C126.37 58.5731 126.554 58.6761 127.478 61.6614C128.401 64.5437 128.862 64.8525 132.554 64.8525C134.77 64.8525 136.616 64.5437 136.524 64.029C136.524 63.6172 134.308 56.1025 131.724 47.3525L126.924 31.3967L121.385 31.0878L115.754 30.779L111.416 46.2202ZM123.324 43.3378C125.17 51.1614 125.078 51.4702 121.385 51.4702C117.785 51.4702 117.785 51.4702 118.985 46.3231C119.447 44.3672 120.093 41.382 120.462 39.7349C121.201 36.029 121.662 36.6467 123.324 43.3378Z" fill="#CB0B0B"/>
<path d="M142.892 47.8672L143.169 64.8525H146.769H150.369L150.646 58.3672L150.923 51.9849L155.354 51.6761C159.508 51.3672 159.692 51.1614 159.692 48.279C159.692 45.3967 159.6 45.2937 155.077 45.2937H150.461V41.6908V38.0878H155.538H160.615V34.4849V30.882H151.661H142.615L142.892 47.8672Z" fill="#CB0B0B"/>
<path d="M165.23 47.8672V64.8525H169.384H173.538V58.1614V51.4702H178.154C182.677 51.4702 182.769 51.3672 182.769 48.382C182.769 45.3967 182.677 45.2937 178.154 45.2937H173.538V41.7937V38.1908L178.43 37.882C183.138 37.5731 183.23 37.4702 183.507 34.1761L183.784 30.882H174.554H165.23V47.8672Z" fill="#CB0B0B"/>
<path d="M188.309 47.8672V64.8525H192.001H195.601L195.878 58.882C196.247 51.1614 197.816 51.1614 201.97 58.882L205.109 64.8525H209.632H214.155L209.909 57.6467L205.662 50.5437L208.062 47.3525C209.539 45.2937 210.462 42.8231 210.462 40.7643C210.462 33.7643 205.939 30.882 194.586 30.882H188.309V47.8672ZM201.047 38.2937C203.816 41.382 200.586 47.4555 196.986 45.9114C195.693 45.3967 195.139 39.0143 196.339 37.779C197.262 36.6467 199.847 36.9555 201.047 38.2937Z" fill="#CB0B0B"/>
<path d="M217.846 47.8672V64.8525H226.615H235.384V61.3525V57.7496L230.584 57.4408C225.876 57.132 225.692 57.029 225.692 54.0437C225.692 51.0584 225.876 50.9555 230.307 50.4408C234.461 49.9261 234.923 49.7202 235.2 47.1467C235.476 44.4702 235.292 44.3672 230.584 44.0584C226.061 43.7496 225.692 43.5437 225.692 41.1761C225.692 38.8084 226.061 38.6025 230.584 38.2937L235.384 37.9849V34.382V30.882H226.615H217.846V47.8672Z" fill="#CB0B0B"/>
<path d="M242.77 47.8672V64.8525H246H249.139L249.416 52.9114L249.693 40.8672L255.231 52.8084L260.77 64.8525H266.123H271.385V47.7643V30.779L267.97 31.0878L264.462 31.3967L264.739 42.4114C264.831 48.5878 264.646 53.529 264.277 53.529C263.816 53.529 261.231 48.4849 258.462 42.4114L253.385 31.3967L248.123 31.0878L242.77 30.779V47.8672Z" fill="#CB0B0B"/>
<path d="M276.924 34.4849C276.924 37.9849 277.016 38.0878 280.616 38.0878H284.308V51.4702V64.8525H288.001H291.601L291.878 51.6761L292.155 38.6025L296.124 38.2937C299.17 37.9849 300.001 37.5731 300.001 36.029C300.001 31.0878 299.539 30.882 287.908 30.882H276.924V34.4849Z" fill="#CB0B0B"/>
</svg>
