<svg width="360" height="154" viewBox="0 0 360 154" fill="none" xmlns="http://www.w3.org/2000/svg">
<path d="M-23.1982 0.921875L-13.4572 22.6307C-10.4638 29.3019 -5.43786 34.8381 0.939319 38.4888V38.4888C4.5995 40.5842 8.62546 42.0126 12.8318 42.7083L28.131 45.2387L48.6488 48.6322C56.6403 49.9539 63.5812 54.5893 67.7407 61.3825V61.3825C69.3568 64.0218 71.412 66.3651 73.8231 68.3173L83.488 76.1428C89.8803 81.3186 95.3343 87.5257 99.6315 94.5152V94.5152C102.781 99.6385 106.398 104.582 111.446 107.899C114.817 110.115 118.502 111.81 121.198 111.252C122.789 110.923 126.093 110.11 130.185 109.067C148.128 104.494 168.126 89.9655 183.829 98.9586V98.9586C197.676 106.889 214.299 117.289 220.88 121.498V121.498C234.451 127.883 248.901 132.373 263.827 134.842L277.287 137.068L286.701 138.625C292.327 139.556 297.701 141.502 302.556 144.368V144.368C307.412 147.234 312.786 149.18 318.411 150.111L321.318 150.591L326.76 151.491C339.837 153.654 353.24 153.765 366.481 151.82V151.82L385.611 148.743" stroke="white" stroke-opacity="0.8"/>
</svg>
